PathFileType	4	(X/Y/Z)	pose_F01_0-97.trc
DataRate	CameraRate	NumFrames	NumMarkers	Units	OrigDataRate	OrigDataStartFrame	OrigNumFrames
30	30	5	21	m	30	60	97
Frame#	Time	CHip			RHip			RKnee			RAnkle			RBigToe			RSmallToe			RHeel			LHip			LKnee			LAnkle			LBigToe			LSmallToe			LHeel			Neck			Nose			RShoulder			RElbow			RWrist			LShoulder			LElbow			LWrist			
		X1	Y1	Z1	X2	Y2	Z2	X3	Y3	Z3	X4	Y4	Z4	X5	Y5	Z5	X6	Y6	Z6	X7	Y7	Z7	X8	Y8	Z8	X9	Y9	Z9	X10	Y10	Z10	X11	Y11	Z11	X12	Y12	Z12	X13	Y13	Z13	X14	Y14	Z14	X15	Y15	Z15	X16	Y16	Z16	X17	Y17	Z17	X18	Y18	Z18	X19	Y19	Z19	X20	Y20	Z20	X21	Y21	Z21	
60	2.0	-0.2812194383384927	1.8268836245876927	-0.5965625841947769	-0.291097782634293	1.8256552777927104	-0.5473820911809205	-0.306875021073134	1.6981185695840049	-0.5402427007284597	-0.30525031680934556	1.551749829350518	-0.537868994049019	-0.26950030092080607	1.5293995748363411	-0.5021072784639228	-0.49169968250394086	1.5285366175410335	-0.9612862733582997	-0.4919916970379716	1.5545522547721822	-0.9209685636993274	-0.26421827051358693	1.8282702799989723	-0.6521753541343857	-0.2729758302940211	1.7046518181812318	-0.6321940312301096				-0.3909502825762424	1.5406302499785298	-0.9248932397737553				-0.43040072164415877	1.5675538344193385	-0.8780382375899174	-0.2665120313845781	1.978371795846955	-0.6452389418084006	-0.22989299494276633	2.036777725963718	-0.651527705285292	-0.2852003491080731	1.9745819390847255	-0.5624715261942157	-0.28028252928574504	1.8885928054457644	-0.5269259909344197	-0.2687966108326911	1.8206563085499836	-0.4959421514919629	-0.25237203597605257	1.9771075153895776	-0.721114114912329	-1.014988673959214	1.8260865902215113	0.037106424259744225	-0.2495121841445152	1.8234989949414828	-0.70782078547038
61	2.033333333333333	-0.28272391805720304	1.8273629349706269	-0.5910188605564766	-0.2923563998268754	1.8242734314072147	-0.541677175212628	-0.3085888923694173	1.6971998566115325	-0.5340715542989111	-0.30525031680934556	1.551749829350518	-0.537868994049019	-0.26950030092080607	1.5293995748363411	-0.5021072784639228	-0.4917622176739299	1.526471770285948	-0.9615476020615112	-0.4919875094323461	1.554785471537894	-0.9208964774008767	-0.27224958674923927	1.829097795773101	-0.6400303281319817	-0.27750904966578155	1.7016146670401184	-0.635709763419055				-0.3909502825762424	1.5406302499785298	-0.9248932397737553				-0.43040072164415877	1.5675538344193385	-0.8780382375899174	-0.2774666496578878	1.9765424174717077	-0.6259792688693253	-0.2374258894340253	2.0374927013713884	-0.6394164056244083	-0.2895355794404056	1.973829230708661	-0.5496376168919412	-0.29171692369751323	1.8861502158019336	-0.5190851994342935	-0.2762125147496828	1.8223807174764217	-0.5016498454892475	-0.2594946864429848	1.9766028802673983	-0.7060344045839347	-1.0217632337267697	1.8280167253620385	0.049493504917140274	-0.24858705647346738	1.8252579791350374	-0.7048150833333796
62	2.066666666666667	-0.2852549123568933	1.819671110226205	-0.5876300101946921	-0.3002959542011611	1.8165271858985914	-0.5286662050423289	-0.31179587689255484	1.6944953514619443	-0.5347826032945153	-0.4908704301365418	1.5591764630921774	-0.9296054284284604	-0.4716747396810312	1.5236270255258657	-0.9699359561052625	-0.489600611123257	1.5269120257485025	-0.9650297671684983	-0.4937809646453837	1.55482687136344	-0.9179485151628003	-0.2747864951735177	1.8221972563462023	-0.636757837611738	-0.2786391411910006	1.7013466101168133	-0.6304581955048323				-0.3909502825762424	1.5406302499785298	-0.9248932397737553				-0.43040072164415877	1.5675538344193385	-0.8780382375899174	-0.2827878067389024	1.977396435631063	-0.6162383615376649	-0.24891661616100455	2.039925642931641	-0.6229750766025345	-0.2986074073604777	1.974914221222676	-0.5356616357542855	-0.2960328744832839	1.8892633747883445	-0.515218571161792	-0.2887791232552732	1.8093022159806085	-0.4922351501857364	-0.26740080742686895	1.9763891079853024	-0.69402483461948	-1.0239402904460446	1.8293925769493002	0.055899431034042275	-0.2591857629803791	1.8195785746496405	-0.6898578293697827
63	2.1	-0.2977648331292342	1.8219153585150085	-0.5748349325984878	-0.30622994532574116	1.8174834793112336	-0.5223093328879019	-0.3151138383404933	1.6954844093132728	-0.5271248639703126	-0.489897189303514	1.5614310746436715	-0.9267063566622172	-0.4716680778378173	1.5250788071383314	-0.970252795778581	-0.4935035705335169	1.528586212618451	-0.9582027320364648	-0.49299453575009383	1.5568906149304305	-0.9158289061509813	-0.28532232539265023	1.8245246797970196	-0.6262099310222269	-0.27884925537269245	1.702028750108849	-0.6302348498270655				-0.3909502825762424	1.5406302499785298	-0.9248932397737553				-0.43040072164415877	1.5675538344193385	-0.8780382375899174	-0.29523291488237335	1.9783304244050566	-0.6031569477534483	-0.25298039930418875	2.0427832904722885	-0.6180928287779138	-0.3087914813387048	1.9743454082170901	-0.524866346715512	-0.30389759669247474	1.8882835722866576	-0.49785341519511483	-0.2904111907252368	1.8206382613570837	-0.4777069435686064	-0.27580406769043864	1.9796840414918466	-0.6850300914280163	-1.0385061755833565	1.8313030514243112	0.08100338720436316	-0.26295059909126456	1.8227261736657	-0.6825088399546051
64	2.1333333333333333	-0.2982817011122607	1.8249498690951411	-0.5698451501011093	-0.3074370445296463	1.8203893884454483	-0.512249203253667	-0.32288356618549013	1.6936663229102806	-0.5187906022783576	-0.48985792930986866	1.560545585086802	-0.9269782961788862	-0.47166141599460343	1.5265305887507974	-0.9705696354518996	-0.4916852008914686	1.5268434428811855	-0.9627108112344939	-0.4930685688444321	1.5550931851461294	-0.9160901077734306	-0.288215765685725	1.8271620238065087	-0.6188850482394858	-0.2851574025184589	1.700616005807482	-0.6265227618302771				-0.3909502825762424	1.5406302499785298	-0.9248932397737553				-0.43040072164415877	1.5675538344193385	-0.8780382375899174	-0.29842683220473504	1.9779641775073893	-0.5952599554522499	-0.26643936377885963	2.0445397679430095	-0.5998009531280094	-0.31366856885662514	1.974150637625471	-0.5147460923931754	-0.3103452157648511	1.8912044737920188	-0.48640014060108944	-0.2931092223588387	1.821669138117568	-0.47414788167892724	-0.2862141756100262	1.9826548146711283	-0.6741056096320462	-1.0470912830030255	1.8288810635376176	0.09405457995568695	-0.2705400843189907	1.8248706042528868	-0.674212540986151
